<?xml version="1.0" encoding="utf-8"?>
<!-- Svg Vector Icons : http://www.onlinewebfonts.com/icon -->
<!DOCTYPE svg PUBLIC "-//W3C//DTD SVG 1.1//EN" "http://www.w3.org/Graphics/SVG/1.1/DTD/svg11.dtd">
<svg version="1.1" xmlns="http://www.w3.org/2000/svg" xmlns:xlink="http://www.w3.org/1999/xlink" x="0px" y="0px" viewBox="0 0 1000 1000" enable-background="new 0 0 1000 1000" xml:space="preserve">
<metadata> Svg Vector Icons : http://www.onlinewebfonts.com/icon </metadata>
<g><path d="M990,279.9H851.4c-96-65.4-213.6-98.4-351.4-98.4s-255.4,33.1-351.4,98.4H10c21,20.6,40.5,65.7,48.7,99.9C28.5,420.6,10,470.5,10,524.9c0,135.1,109.9,245,245,245c65,0,123.8-25.9,167.7-67.4L500,818.5l77.3-115.9c43.9,41.5,102.7,67.4,167.7,67.4c135.1,0,245-109.9,245-245c0-54.5-18.5-104.4-48.7-145.1C949.5,345.6,969,300.5,990,279.9z M255,691.5c-91.9,0-166.6-74.7-166.6-166.6c0-91.9,74.7-166.6,166.6-166.6s166.6,74.7,166.6,166.6C421.6,616.8,346.9,691.5,255,691.5z M500,524.9c0-118.4-84.5-217.5-196.4-240.1C362.5,265,427.9,255,500,255s137.5,10,196.4,29.9C584.5,307.5,500,406.5,500,524.9z M745,691.5c-91.9,0-166.6-74.7-166.6-166.6c0-91.9,74.7-166.6,166.6-166.6s166.6,74.7,166.6,166.6C911.6,616.8,836.9,691.5,745,691.5z M255,419.6c-58.1,0-105.3,47.3-105.3,105.4S196.9,630.3,255,630.3S360.3,583,360.3,524.9S313.1,419.6,255,419.6z M255,556.4c-17.6,0-31.8-14.3-31.8-31.9s14.3-31.9,31.8-31.9s31.8,14.3,31.8,31.9S272.6,556.4,255,556.4z M745,419.6c-58.1,0-105.3,47.3-105.3,105.4S686.9,630.3,745,630.3S850.3,583,850.3,524.9S803.1,419.6,745,419.6z M745,556.4c-17.6,0-31.8-14.3-31.8-31.9s14.3-31.9,31.8-31.9s31.8,14.3,31.8,31.9S762.6,556.4,745,556.4z"/></g>
</svg>